<?xml version="1.0" encoding="UTF-8" standalone="no"?>
<!-- Created with Inkscape (http://www.inkscape.org/) -->

<svg
   width="476.26981mm"
   height="369.29114mm"
   viewBox="0 0 476.2698 369.29115"
   version="1.1"
   id="svg1"
   xml:space="preserve"
   xmlns="http://www.w3.org/2000/svg"
   xmlns:svg="http://www.w3.org/2000/svg"><defs
     id="defs1" /><g
     id="layer1"
     transform="translate(365.50571,-126.53029)"><path
       style="fill:#000000"
       d="m -291.97346,495.5627 c -9.46183,-0.7291 -20.64913,-3.7545 -28.28179,-7.6484 -0.57993,-0.2959 -1.05443,-0.4713 -1.05443,-0.3898 0,0.081 -0.14882,0.017 -0.33073,-0.1423 -0.1819,-0.1598 -1.75947,-1.1065 -3.50572,-2.1039 -1.74625,-0.9974 -3.14229,-1.9518 -3.1023,-2.1209 0.04,-0.1692 -0.0606,-0.2251 -0.22359,-0.1244 -0.16296,0.1007 -0.6124,-0.049 -0.99875,-0.3331 -0.38634,-0.284 -1.53589,-1.0945 -2.55453,-1.8012 -5.94728,-4.1262 -14.05232,-12.1769 -18.12396,-18.0024 -3.32074,-4.7511 -5.61407,-8.5391 -5.38964,-8.9022 0.0993,-0.1606 0.0596,-0.2166 -0.0886,-0.125 -0.2573,0.1591 -2.81552,-4.9058 -4.05167,-8.02161 -0.52668,-1.3275 -1.73715,-4.7771 -2.36748,-6.7468 -1.47013,-4.5941 -2.69873,-11.3064 -3.16962,-17.317 -0.37832,-4.829 -0.38946,-216.27507 -0.0117,-221.10034 0.48988,-6.25643 1.9273,-13.90533 3.41901,-18.19343 0.29702,-0.85381 0.47509,-1.65749 0.3957,-1.78593 -0.0794,-0.12845 -0.0472,-0.23354 0.0714,-0.23354 0.11867,0 0.37316,-0.5043 0.56553,-1.12065 0.19236,-0.61636 0.63807,-1.75098 0.99046,-2.52139 0.35239,-0.7704 0.64071,-1.52329 0.64071,-1.67309 0,-0.14979 0.1177,-0.19961 0.26155,-0.1107 0.14386,0.0889 0.19805,-0.004 0.12044,-0.2061 -0.34138,-0.88963 5.62478,-11.53085 8.70979,-15.53474 0.7288,-0.94589 1.68941,-2.19604 2.13467,-2.77813 3.63803,-4.75588 10.26656,-11.01122 16.29021,-15.37304 2.80093,-2.0282 5.83334,-3.83275 6.13124,-3.64864 0.17183,0.1062 0.22818,0.0687 0.13158,-0.0876 -0.21603,-0.34955 7.68894,-4.39025 8.20294,-4.19301 0.21005,0.0806 0.30648,0.0288 0.21675,-0.11635 -0.0889,-0.14385 -0.0391,-0.26155 0.1107,-0.26155 0.1498,0 0.90097,-0.28632 1.66926,-0.63626 4.53539,-2.06574 12.51218,-4.09558 20.5792,-5.23674 1.72641,-0.24422 40.02584,-0.3388 164.8354,-0.40703 145.200613,-0.0794 163.095723,-0.045 167.348953,0.32168 5.17875,0.44645 7.76543,0.84764 12.03854,1.86716 4.91664,1.17306 12.93627,4.03131 12.50921,4.45837 -0.10447,0.10447 -0.008,0.12025 0.21371,0.0351 0.55122,-0.21152 8.50459,3.78319 8.27425,4.15588 -0.10294,0.16657 -0.0538,0.2101 0.1176,0.10417 0.47199,-0.29171 5.46417,3.02486 9.87291,6.5591 3.81961,3.06197 10.1751,9.2379 11.80698,11.47342 0.40112,0.54948 1.51518,2.00802 2.4757,3.24119 0.96052,1.23317 2.50049,3.43276 3.42217,4.88796 2.183327,3.44722 5.877917,10.69043 5.695457,11.16591 -0.0784,0.20418 -0.0248,0.29828 0.11921,0.20931 0.14385,-0.0889 0.26155,-0.0391 0.26155,0.1107 0,0.1498 0.28431,0.90097 0.63179,1.66926 0.68854,1.52237 2.90462,8.24135 3.20962,9.73128 0.10426,0.50933 0.25922,1.04301 0.34436,1.18598 0.0851,0.14296 0.1739,0.44062 0.19724,0.66145 0.0233,0.22084 0.35279,2.247 0.73211,4.50257 0.37932,2.25558 0.81235,5.70242 0.96228,7.65966 0.37726,4.9249 0.3751,215.94691 -0.002,221.07261 -0.61695,8.38 -2.46253,16.4587 -5.51555,24.1433 -0.30353,0.76391 -0.46431,1.39081 -0.35729,1.39311 0.10702,0 0.0663,0.091 -0.0904,0.1984 -0.15676,0.1069 -0.97787,1.6492 -1.8247,3.4272 -0.86671,1.8198 -1.65625,3.1608 -1.80638,3.068 -0.14669,-0.091 -0.18583,-0.034 -0.087,0.126 0.23797,0.385 -0.73342,1.9882 -5.629837,9.2917 -3.30478,4.9294 -12.18493,13.6689 -17.88376,17.6006 -1.01865,0.7028 -2.04034,1.4412 -2.27043,1.6408 -0.23009,0.1997 -0.49798,0.2835 -0.59531,0.1862 -0.0973,-0.097 -0.17697,-0.025 -0.17697,0.16 0,0.1958 -0.17197,0.271 -0.41062,0.1794 -0.22584,-0.087 -0.34233,-0.047 -0.25887,0.088 0.26501,0.4288 -7.69244,4.8012 -11.36905,6.2469 -1.01865,0.4006 -1.97115,0.8147 -2.11667,0.9202 -0.14552,0.1055 -2.11005,0.7915 -4.36562,1.5243 -6.57219,2.1353 -11.94598,3.1923 -19.03674,3.7445 -4.30456,0.3352 -324.302823,0.3215 -328.658273,-0.014 z m -55.26538,-30.0322 c 0,-0.219 -0.51375,-0.3428 -0.63154,-0.1522 -0.0764,0.1236 0.0344,0.2248 0.2463,0.2248 0.21188,0 0.38524,-0.033 0.38524,-0.073 z m 200.02498,-3.5168 c 0,-0.1309 -0.58917,-0.4499 -1.30926,-0.7088 -0.7201,-0.259 -1.23748,-0.587 -1.14975,-0.7289 0.0877,-0.142 0.0247,-0.1748 -0.13999,-0.073 -0.47766,0.2952 -3.1914,-1.6023 -5.21585,-3.647 -2.18285,-2.2047 -3.75755,-4.7528 -4.75921,-7.7012 -1.64773,-4.85001 -1.54217,-1.0207 -1.63879,-59.44674 l -0.0883,-53.36134 12.82545,12.79825 12.82546,12.79825 3.23228,0.96641 c 8.32508,2.48909 16.14538,2.82854 27.04186,1.17379 3.83196,-0.58193 9.277993,-1.76776 12.600563,-2.74367 1.22864,-0.36088 2.32997,-0.59677 2.4474,-0.52419 0.11743,0.0726 0.21351,0.0305 0.21351,-0.0935 0,-0.12397 0.68461,-0.45283 1.52135,-0.73079 2.07413,-0.68902 7.45812,-2.8925 9.09803,-3.72351 0.73724,-0.37358 1.51316,-0.61297 1.72427,-0.53196 0.21111,0.081 0.31346,0.0334 0.22746,-0.10572 -0.086,-0.13916 0.71148,-0.6868 1.77219,-1.21698 1.06071,-0.53018 2.13693,-1.14778 2.39159,-1.37246 0.25466,-0.22467 0.46485,-0.30075 0.46707,-0.16905 0.002,0.13169 0.0915,0.11685 0.19844,-0.033 0.25508,-0.35748 3.72395,-2.5057 4.04613,-2.5057 0.13711,0 0.2493,-0.10936 0.2493,-0.24301 0,-0.13365 0.44648,-0.51667 0.99219,-0.85116 0.5457,-0.33449 1.28862,-0.87998 1.65094,-1.21221 0.36231,-0.33222 0.74076,-0.60404 0.841,-0.60404 0.10023,0 0.33957,-0.15016 0.53187,-0.33369 0.19229,-0.18353 1.06337,-0.92767 1.93572,-1.65365 5.17076,-4.30312 10.20884,-9.90985 14.24607,-15.85404 0.99508,-1.4651 1.92667,-2.63111 2.07018,-2.59113 0.14352,0.04 0.19043,-0.0414 0.10424,-0.18085 -0.0862,-0.13945 0.47378,-1.3628 1.24438,-2.71853 0.77059,-1.35574 1.5764,-2.81088 1.79068,-3.23365 0.45704,-0.90171 0.41702,-1.10482 0.77705,3.94366 0.75753,10.62233 2.55329,20.3894 5.46173,29.7062 1.45755,4.66905 4.59018,12.19562 6.09689,14.64859 0.32537,0.52972 0.51897,1.03573 0.43022,1.12448 -0.0888,0.0888 -0.0369,0.16136 0.11522,0.16136 0.15212,0 0.43546,0.38695 0.62963,0.8599 0.19418,0.47294 0.44977,0.97895 0.56797,1.12447 0.11821,0.14553 1.07297,1.57428 2.12168,3.175 1.04872,1.60073 2.1053,3.14855 2.34796,3.43959 4.06224,4.87224 5.38502,6.30122 8.13214,8.78502 2.93758,2.65601 6.50797,5.30473 10.0122503,7.42767 1.19453,0.72367 2.0875,1.40931 1.98437,1.52364 -0.10313,0.11434 -0.0431,0.12497 0.13338,0.0236 0.17649,-0.10133 0.7992,0.1177 1.3838,0.48675 0.58461,0.36904 1.18654,0.67099 1.33763,0.67099 0.15109,0 0.83807004,0.28609 1.52661004,0.63577 2.22384996,1.12937 9.16470996,3.86214 9.80929996,3.86214 0.18764,0 0.25359,0.13557 0.14859,0.30547 -0.11555,0.18696 -0.0727,0.23373 0.11037,0.12057 0.1645397,-0.10169 1.8274097,0.23983 3.6952697,0.75895 4.07168,1.13164 8.83387,2.07354 14.21129,2.81094 11.91754,1.6342 40.63909,0.4241 57.31168,-2.41454 1.68966,-0.28768 3.14851,-0.52305 3.24189,-0.52305 0.0934,0 0.13968,-20.86571 0.1029,-46.36823 l -0.0669,-46.36823 -26.12761,-0.0674 c -17.37128,-0.0448 -26.1276,0.0217 -26.1276,0.19844 0,0.14623 0.12403,0.26587 0.27562,0.26587 0.27013,0 3.04585,1.31253 4.09,1.934 2.42425,1.4429 5.11976,4.00539 5.97424,5.67941 0.2024,0.39653 0.70894,1.28904 1.12564,1.98336 0.46018,0.76676 0.68994,1.4388 0.58521,1.71172 -0.0948,0.24714 -0.0848,0.36169 0.0223,0.25456 0.2841,-0.2841 0.85042,1.20091 1.49305,3.91508 0.54945,2.32064 0.56604,2.98116 0.65197,25.95244 l 0.0882,23.57119 -2.0599,0.47651 c -3.03921,0.70306 -9.86056,0.85541 -13.15522,0.29381 -4.05535,-0.69126 -9.58397,-2.57008 -9.23314,-3.13775 0.0933,-0.15093 0.0439,-0.19673 -0.10975,-0.10177 -0.38846,0.24008 -2.99772,-1.105 -5.32703,-2.74611 -1.71417,-1.20771 -6.45556,-5.54686 -6.06105,-5.54686 0.0812,0 -0.25095,-0.4352 -0.73815,-0.9671 -0.48721,-0.5319 -0.83137,-1.0552 -0.76481,-1.1629 0.0666,-0.10769 -0.0337,-0.25517 -0.22275,-0.32772 -0.47503,-0.18224 -2.8557897,-5.05862 -4.0316597,-8.25785 -5.27088,-14.34065 -7.22032,-38.69219 -4.9987,-62.44167 1.04059,-11.12404 2.18575,-15.85588 5.42648,-22.42229 2.6743497,-5.41878 8.2414097,-12.45763 12.3747697,-15.6463 2.3173,-1.78768 3.74202,-2.81597 4.62905,-3.34101 3.01106,-1.78227 4.36347,-2.45649 4.97871,-2.48207 0.38587,-0.016 0.65608,-0.10335 0.60045,-0.19402 -0.13826,-0.22534 2.52639,-1.17496 5.06946,-1.80664 5.47459,-1.35983 11.5557,-1.85138 16.77953,-1.35631 7.29123,0.69099 13.51243,2.44536 20.29669,5.72363 3.9532,1.91025 10.71224,6.10535 12.43621,7.71873 0.46784,0.43782 0.89736,0.74929 0.95449,0.69216 0.0571,-0.0571 0.25448,0.0776 0.43856,0.2994 0.18407,0.2218 0.43916,0.40327 0.56687,0.40327 0.13119,0 0.23218,-8.92239 0.23218,-20.51352 0,-16.17256 -0.07,-20.53805 -0.33073,-20.62949 -1.26891,-0.44501 -17.42521,-2.42819 -25.20156,-3.09349 -5.39395,-0.46147 -25.63624,-0.46325 -29.89791,-0.003 -3.24007,0.3502 -8.30699,1.04004 -9.26042,1.26076 -0.29104,0.0674 -0.88635,0.16417 -1.32292,0.21509 -0.43656,0.0509 -1.15093,0.18074 -1.5875,0.28848 -0.43656,0.10773 -2.40109,0.59269 -4.36562,1.07767 -1.96453,0.48498 -4.82203,1.3146 -6.35,1.8436 -1.5279697,0.52899 -2.8971897,0.98963 -3.0427097,1.02365 -0.14552,0.034 -0.85365,0.32695 -1.57363,0.65097 -0.71998,0.32403 -1.4703,0.52726 -1.66739,0.45163 -0.19708,-0.0756 -0.29414,-0.0336 -0.21567,0.0933 0.0785,0.12697 -0.24277,0.38332 -0.71386,0.56967 -2.21078996,0.87453 -7.87938,3.86012 -10.43248,5.49469 -4.7025203,3.01068 -9.8720203,7.36272 -13.5984903,11.44813 -2.19264,2.40383 -5.3564,6.42546 -6.26544,7.96434 -0.24191,0.40953 -0.53323,0.7446 -0.64738,0.7446 -0.11414,0 -0.20753,0.11492 -0.20753,0.25539 0,0.48906 -1.51456,2.63991 -1.725,2.4497 -0.11656,-0.10535 -0.12888,-0.0469 -0.0274,0.12982 0.1015,0.17675 -0.0933,0.868 -0.43281,1.53611 l -0.61736,1.21476 -0.32014,-6.03404 c -0.93046,-17.53708 -3.65233,-31.55294 -8.48603,-43.69739 -0.59945,-1.50609 -1.01229,-2.86394 -0.91742,-3.01744 0.0949,-0.1535 0.0577,-0.20814 -0.0826,-0.12142 -0.32789,0.20265 -2.27798,-3.7172 -2.04046,-4.10152 0.10732,-0.17365 0.0567,-0.21395 -0.12655,-0.1007 -0.16801,0.10384 -0.30547,0.085 -0.30547,-0.042 0,-0.12691 -0.48171,-1.02944 -1.07047,-2.00562 -0.58875,-0.97617 -0.98708,-1.90978 -0.88516,-2.07469 0.10809,-0.17488 0.0678,-0.22719 -0.0968,-0.12551 -0.24521,0.15155 -0.59568,-0.31125 -2.30449,-3.04309 -1.07864,-1.72442 -3.93768,-5.0812 -6.62333,-7.77641 -3.53652,-3.54912 -6.85944,-6.14603 -11.15103,-8.71469 -1.57954,-0.9454 -2.99095,-1.81031 -3.13647,-1.92202 -0.58409,-0.44837 -6.5727,-2.99769 -9.79826,-4.17107 -3.19064,-1.16068 -12.57095,-3.71188 -14.6757,-3.99141 -0.50932,-0.0676 -2.29526,-0.35083 -3.96875,-0.62931 -8.046973,-1.33906 -17.424833,-2.07204 -30.030213,-2.34718 -5.09323,-0.11117 -27.09002,-0.15337 -48.88177,-0.0938 l -39.62134,0.10837 -0.0115,44.0914 -0.0115,44.0914 -0.86898,-2.11666 c -1.56729,-3.81762 -4.43086,-9.03875 -5.67536,-10.34785 -0.1923,-0.20228 -0.27786,-0.36778 -0.19013,-0.36778 0.0877,0 -1.36228,-1.51816 -3.22225,-3.37368 -6.42792,-6.4126 -12.83999,-9.89845 -22.98808,-12.4972 -5.63044,-1.44185 -16.51527,-2.91453 -21.54185,-2.91453 -0.96713,0 -1.83669,-0.0783 -1.93236,-0.17395 -0.0957,-0.0957 -16.15919,-0.15148 -35.6967,-0.12401 l -35.52275,0.0499 v 94.51411 94.51407 l 28.64114,0.067 c 15.75263,0.037 28.64115,-0.027 28.64115,-0.1413 0,-0.1148 -0.55369,-0.4139 -1.23042,-0.6647 -1.987,-0.73648 -5.49432,-3.23813 -7.22759,-5.15524 -2.35508,-2.60488 -4.03863,-6.0752 -5.0988,-10.51021 -0.56087,-2.34627 -0.57058,-2.79579 -0.66112,-30.59956 l -0.0919,-28.2183 8.10777,8.12739 8.10776,8.12739 2.156,0.43588 c 11.72536,2.3705 25.94563,0.50973 37.47787,-4.90409 1.23693,-0.58068 2.39779,-1.06095 2.57969,-1.06728 0.1819,-0.006 0.33073,-0.0879 0.33073,-0.18135 0,-0.0934 0.74414,-0.56598 1.65364,-1.05013 0.90951,-0.48415 2.82199,-1.69997 4.24997,-2.70181 1.42797,-1.00184 2.72629,-1.7412 2.88515,-1.64302 0.16193,0.10009 0.21394,0.0573 0.11837,-0.0973 -0.0938,-0.1517 0.35778,-0.70867 1.00342,-1.23772 1.7694,-1.44989 4.52139,-4.28151 6.32219,-6.50512 0.88415,-1.09174 1.68452,-2.04451 1.77861,-2.11727 0.0941,-0.0728 0.36932,-0.51925 0.61165,-0.99219 0.24232,-0.47294 0.55659,-0.8599 0.69837,-0.8599 0.14179,0 0.23222,-0.0893 0.20098,-0.19843 -0.0312,-0.10914 0.28809,-0.73422 0.70966,-1.38907 1.27331,-1.97791 3.09667,-5.5204 4.42599,-8.59896 l 1.25672,-2.91041 0.007,75.56059 c 0.004,41.55831 0.0866,75.64002 0.18361,75.73702 0.27394,0.2739 68.0861,0.2125 68.0861,-0.062 z m 15.74271,-132.4869 c -0.43657,-0.0491 -2.04391,-0.22063 -3.57188,-0.38107 -4.62305,-0.48541 -10.03261,-1.76166 -14.55208,-3.43318 -1.23693,-0.45748 -2.45598,-0.89311 -2.709,-0.96806 -0.25303,-0.075 -0.38346,-0.26021 -0.28985,-0.41167 0.10157,-0.16435 0.0412,-0.19564 -0.14981,-0.0776 -0.36539,0.22582 -4.60587,-1.7938 -7.10747,-3.38508 l -1.65717,-1.05414 0.0697,-57.3035 0.0697,-57.3035 0.57394,-1.50065 c 1.77449,-4.63968 6.69218,-9.02709 12.65523,-11.2906 4.17359,-1.58425 8.50595,-2.31597 15.34583,-2.59185 4.36263,-0.17596 8.18,0.12307 12.3066,0.96402 2.63102,0.53616 6.9399,1.85955 8.19861,2.51804 0.3638,0.19032 1.43536,0.72532 2.38125,1.18888 0.94588,0.46356 1.83928,0.97985 1.98533,1.14729 0.14605,0.16745 0.43391,0.34088 0.6397,0.38539 0.71475,0.15463 5.19032,3.70452 6.94774,5.51074 3.227983,3.31762 6.796273,8.24279 6.416783,8.85681 -0.1255,0.20307 -0.0842,0.24838 0.11441,0.12561 0.47866,-0.29583 3.50732,6.22433 5.0287,10.8259 2.05091,6.20319 3.5416,13.83301 4.31642,22.09271 0.50489,5.38225 0.42043,21.43173 -0.14474,27.50734 -1.30264,14.00314 -3.92499,24.822 -8.22937,33.95137 -0.77165,1.63663 -1.3292,2.52182 -1.51577,2.40651 -0.17594,-0.10873 -0.22115,-0.0627 -0.11195,0.11399 0.26063,0.42172 -0.8455,2.49313 -1.21078,2.26738 -0.17542,-0.10842 -0.22143,-0.063 -0.11331,0.11198 0.26055,0.42157 -2.35655,4.26976 -4.822633,7.09122 -5.966,6.82575 -13.6842,11.11867 -22.32295,12.41619 -2.3271,0.34952 -6.44613,0.4554 -8.54112,0.21954 z m -152.79686,-6.98359 c -2.60372,-0.20314 -6.18949,-0.95489 -8.75697,-1.83589 -1.88094,-0.64542 -5.13593,-2.34008 -5.95796,-3.10191 -0.347,-0.32158 -0.63273,-0.50108 -0.63496,-0.39889 -0.002,0.10219 -0.11946,0.007 -0.26053,-0.21107 -0.16217,-0.25094 -0.25797,-12.99997 -0.26053,-34.67098 -0.004,-29.95285 0.0471,-34.47292 0.40187,-35.85104 0.45629,-1.77259 1.72633,-3.99601 2.21944,-3.88549 0.17841,0.04 0.26024,-0.0311 0.18184,-0.15795 -0.31579,-0.51096 2.26124,-2.34791 4.36558,-3.11186 1.845,-0.6698 6.12872,-1.15105 10.32664,-1.16013 5.71291,-0.0124 9.48674,0.79743 13.8537,2.97277 1.16417,0.57991 2.1762,1.1314 2.24896,1.22554 0.0728,0.0941 0.48948,0.39659 0.92604,0.67214 2.29683,1.44967 7.2817,7.16986 6.85286,7.86373 -0.10613,0.17173 -0.0719,0.2322 0.0787,0.13912 0.31721,-0.19605 2.24041,3.59211 3.16013,6.22455 1.33233,3.81342 2.84716,11.89704 2.71645,14.49585 -0.0256,0.50932 0.0457,1.14497 0.15841,1.41255 0.46798,1.11067 -0.2752,18.60697 -0.85032,20.0187 -0.0889,0.21828 -0.14048,0.49304 -0.11458,0.61057 0.0782,0.3549 -0.50966,3.6194 -1.05736,5.87172 -1.58246,6.50751 -4.45554,12.54886 -7.47299,15.71379 -1.23421,1.29452 -3.34732,3.15406 -4.02875,3.5453 -4.16529,2.39148 -6.76729,3.22365 -11.34878,3.62957 -3.14412,0.27856 -3.03721,0.27873 -6.74687,-0.0107 z m 129.64582,21.33984 c 0,-0.0549 -0.20836,-0.2633 -0.46303,-0.46302 -0.41964,-0.32911 -0.429,-0.31975 -0.0999,0.0999 0.34564,0.44072 0.56292,0.58088 0.56292,0.36312 z"
       id="path3" /></g></svg>
