<?xml version="1.0" encoding="UTF-8" standalone="no"?>
<!-- Created with Inkscape (http://www.inkscape.org/) -->

<svg
   width="986.90338mm"
   height="464.57956mm"
   viewBox="0 0 986.90338 464.57958"
   version="1.1"
   id="svg1"
   xml:space="preserve"
   xmlns="http://www.w3.org/2000/svg"
   xmlns:svg="http://www.w3.org/2000/svg"><defs
     id="defs1" /><g
     id="layer1"
     transform="translate(487.47318,-602.56365)"><path
       style="fill:#000000"
       d="m -171.94946,1066.6611 c -2.67735,-0.6948 -4.52036,-1.738 -6.41138,-3.629 -1.80549,-1.8055 -3.17497,-4.3031 -3.89399,-7.1016 -0.93514,-3.6396 -1.07172,-5.97 -1.07172,-18.286 0,-15.0918 0.28618,-17.6933 2.43027,-22.0928 1.82648,-3.7477 5.26178,-6.3844 9.47598,-7.2731 6.91997,-1.4593 13.52505,1.4869 16.36811,7.301 1.94969,3.9872 2.28275,6.5394 2.46876,18.9182 0.22223,14.7897 -0.29882,20.4233 -2.27322,24.5779 -1.69715,3.5712 -4.1889,5.8407 -7.9174,7.2112 -2.4233,0.8907 -6.53824,1.0585 -9.17541,0.3742 z m 6.49237,-8.5776 c 1.59518,-0.8044 2.53873,-2.6886 3.10612,-6.2027 0.60799,-3.7655 0.61462,-24.9721 0.009,-28.6946 -0.7938,-4.8789 -2.14957,-6.5936 -5.36576,-6.7863 -3.33277,-0.1997 -4.98626,1.6426 -5.88786,6.5602 -0.39448,2.1516 -0.46083,4.247 -0.46083,14.5521 0,13.3251 0.2051,15.6301 1.64806,18.5208 0.89106,1.7851 2.33146,2.6458 4.42768,2.6458 0.86665,0 1.76186,-0.2112 2.52362,-0.5953 z m 37.39194,8.6667 c -4.79135,-1.0419 -8.71927,-4.734 -10.25388,-9.6381 -1.21855,-3.8941 -1.35127,-5.8453 -1.3512,-19.8645 6e-5,-14.021 0.12137,-15.6435 1.4776,-19.7619 1.09084,-3.3125 3.76427,-6.4583 6.78398,-7.9827 4.44042,-2.2415 10.93064,-2.0241 14.8894,0.4987 3.64182,2.3208 5.81445,5.7927 6.77876,10.8327 0.62066,3.2439 0.97347,12.4635 0.79515,20.7788 -0.2331,10.8704 -0.66458,14.022 -2.42984,17.7483 -1.13906,2.4045 -3.60907,4.9486 -5.95725,6.1359 -3.05297,1.5437 -7.18005,2.0255 -10.73272,1.2528 z m 6.10455,-8.5966 c 1.9536,-0.9539 2.77949,-2.86 3.32631,-7.6769 0.37564,-3.309 0.36924,-22.6638 -0.009,-26.0253 -0.66752,-5.9384 -2.21785,-8.1167 -5.76492,-8.1001 -1.70812,0.01 -3.31089,0.7949 -4.12221,2.0239 -1.57157,2.3807 -2.01213,6.5708 -2.01213,19.137 0,15.2471 0.6845,19.0722 3.70004,20.6762 1.24532,0.6625 3.48624,0.6465 4.88153,-0.035 z m 417.81253,8.7009 c -3.8125,-0.7788 -7.9814,-3.891 -9.6362,-7.1937 -1.6751,-3.3432 -1.6267,-2.5133 -1.6267,-27.8928 v -23.0954 h 4.6327 4.6326 v 22.688 c 0,15.1795 0.089,23.0188 0.2766,23.6874 0.3492,1.2453 1.6893,2.8016 2.8185,3.2734 1.1056,0.4619 3.558,0.4585 4.6711,-0.01 1.1614,-0.4853 2.4378,-2.08 2.7926,-3.4893 0.1964,-0.7797 0.288,-8.3044 0.288,-23.6483 v -22.5042 h 4.6302 4.6302 v 23.0954 c 0,25.1283 0.034,24.5086 -1.4987,27.671 -0.8818,1.8202 -3.6435,4.7512 -5.3535,5.6819 -2.4487,1.3327 -4.2032,1.7983 -7.1707,1.9025 -1.528,0.054 -3.3653,-0.022 -4.083,-0.1689 z m 81.8705,-0.1235 c -2.6411,-0.5719 -4.8652,-1.8006 -6.8563,-3.7876 -2.0607,-2.0566 -3.0141,-3.726 -3.7328,-6.5361 -0.5017,-1.9613 -0.5234,-2.9966 -0.5234,-24.8906 v -22.8441 h 4.6302 4.6302 v 22.212 c 0,14.8425 0.094,22.652 0.2844,23.5382 0.3855,1.7974 1.209,2.9489 2.6181,3.6607 2.2612,1.1423 5.5925,0.5612 6.842,-1.1935 1.3524,-1.8992 1.368,-2.1966 1.368,-26.048 v -22.1694 h 4.6397 4.6397 l -0.076,23.4817 -0.076,23.4818 -0.6886,1.881 c -2.6354,7.1994 -9.7938,10.9259 -17.6996,9.2139 z m -855.59637,-0.3299 -0.8599,-0.083 v -28.8228 -28.8228 l 8.92969,0.01 c 9.64124,0 11.22746,0.167 13.98403,1.429 0.79069,0.362 2.07823,1.2988 2.86122,2.0818 2.75865,2.7587 3.64812,5.5893 3.63432,11.5658 -0.01,4.2251 -0.38004,6.1893 -1.53995,8.1689 -0.93262,1.5918 -2.26197,3.0132 -3.382,3.6164 -0.51666,0.2783 -0.93939,0.5834 -0.93939,0.6782 0,0.095 0.3385,0.3125 0.75223,0.4839 1.09009,0.4516 3.0787,2.586 3.83687,4.1183 1.23396,2.4938 1.36301,3.3713 1.36195,9.2604 -8.4e-4,4.6315 -0.0817,5.8204 -0.48596,7.1437 -1.4514,4.7513 -4.17849,7.4203 -8.79518,8.6079 -1.85609,0.4775 -3.02528,0.5452 -10.29595,0.5956 -4.51115,0.031 -8.58904,0.02 -9.06198,-0.026 z m 16.34857,-9.0665 c 2.31328,-1.277 3.01021,-3.1325 3.02312,-8.0485 0.0104,-3.9397 -0.31797,-5.4268 -1.52011,-6.8852 -1.32441,-1.6067 -2.45477,-1.9658 -6.20991,-1.9725 l -3.24115,-0.01 v 8.8986 8.8987 l 3.39422,-0.1226 c 2.95819,-0.1068 3.5432,-0.2048 4.55383,-0.7627 z m 0,-25.6646 c 2.18841,-1.2081 2.89613,-2.9193 2.89839,-7.0083 0.002,-3.2712 -0.46047,-4.9804 -1.66207,-6.145 -1.16662,-1.1308 -2.07458,-1.3691 -5.94322,-1.56 l -3.24115,-0.1599 v 7.8793 7.8792 l 3.39422,-0.1226 c 2.95819,-0.1068 3.5432,-0.2048 4.55383,-0.7627 z m 25.98476,34.7311 -0.85989,-0.083 v -28.8228 -28.8228 h 12.17083 12.17083 v 4.101 4.1011 l -0.7276,0.017 c -0.40018,0.01 -3.79346,0.022 -7.54063,0.028 l -6.81302,0.011 v 8.0118 8.0118 l 5.75469,0.013 c 3.16508,0.01 6.08211,0.021 6.48229,0.03 l 0.72761,0.016 v 4.101 4.1011 h -6.4823 -6.48229 v 8.4666 8.4667 h 7.54735 7.54734 l -0.0729,4.1349 -0.0729,4.135 -11.24479,0.032 c -6.18464,0.018 -11.63174,-0.01 -12.10469,-0.051 z m 44.58229,-8e-4 -0.7276,-0.084 v -24.7014 -24.7014 l -4.43177,-4e-4 c -2.43747,-2e-4 -4.64013,-0.01 -4.89479,-0.02 -0.42024,-0.017 -0.46302,-0.3981 -0.46302,-4.1202 v -4.101 h 14.41979 14.41979 v 4.101 4.101 l -0.8599,0.018 c -0.47294,0.01 -2.67559,0.022 -4.89479,0.027 l -4.03489,0.01 v 24.7114 24.7113 l -0.59532,0.017 c -2.76919,0.081 -7.3479,0.099 -7.9375,0.031 z m 37.96771,8e-4 -0.85989,-0.083 v -24.7022 -24.7022 l -4.43177,-4e-4 c -2.43748,-2e-4 -4.5806,-0.01 -4.7625,-0.02 -0.24954,-0.015 -0.33073,-1.026 -0.33073,-4.1202 v -4.1011 h 14.2875 14.2875 v 4.1011 4.101 l -0.72761,0.018 c -0.40018,0.01 -2.60284,0.021 -4.89479,0.024 l -4.16719,0.01 v 24.714 c 0,23.3542 -0.0255,24.715 -0.46302,24.7315 -2.06893,0.078 -7.24559,0.099 -7.9375,0.032 z m 30.55938,-8e-4 -0.72761,-0.084 v -28.822 -28.822 h 12.17756 12.17755 l -0.0729,4.1373 -0.0729,4.1373 -7.47448,-0.014 -7.47448,-0.014 v 8.0182 8.0181 l 5.75469,0.013 c 3.16508,0.01 6.08211,0.021 6.48229,0.03 l 0.7276,0.016 v 4.1011 4.101 h -6.48229 -6.48229 v 8.4667 8.4666 h 7.54062 7.54063 l -10e-6,4.1672 -10e-6,4.1672 h -11.44322 c -6.29377,0 -11.77064,-0.038 -12.17082,-0.084 z m 38.23229,8e-4 -0.8599,-0.083 v -28.8228 -28.8228 h 8.95351 c 8.05448,0 9.159,0.053 10.99993,0.5234 2.65665,0.6794 4.42911,1.6636 5.85748,3.2522 2.12717,2.366 3.09525,5.1042 3.57302,10.1063 0.7913,8.2846 -1.23883,14.8571 -5.40281,17.4914 l -1.15506,0.7308 4.19738,12.586 c 2.30856,6.9223 4.19743,12.7064 4.19749,12.8536 1.2e-4,0.3277 -9.22464,0.2889 -9.51774,-0.04 -0.10852,-0.1217 -1.84363,-5.4303 -3.8558,-11.7969 l -3.65848,-11.5755 h -2.46425 -2.46425 v 11.774 11.7739 l -1.25677,0.018 c -0.69122,0.01 -2.38787,0.039 -3.77031,0.066 -1.38245,0.027 -2.9005,0.011 -3.37344,-0.034 z m 16.16043,-32.4248 c 1.21253,-0.5067 2.21754,-1.8073 2.71277,-3.5109 0.32581,-1.1207 0.40236,-2.3528 0.333,-5.36 -0.0861,-3.7332 -0.12495,-3.9727 -0.88381,-5.4484 -1.14959,-2.2357 -1.88651,-2.5508 -6.36575,-2.7217 l -3.55612,-0.1357 v 8.7688 8.7688 h 3.44808 c 2.31365,0 3.73226,-0.1188 4.31183,-0.3609 z m 49.19165,32.4248 -0.85989,-0.083 v -28.8228 -28.8228 h 12.17083 12.17083 v 4.101 4.1011 l -0.85989,0.016 c -0.47295,0.01 -3.86623,0.022 -7.54063,0.03 l -6.68073,0.014 v 8.0399 8.04 h 6.48229 6.4823 v 4.2333 4.2334 h -6.4823 -6.48229 v 12.4354 c 0,11.6602 -0.0289,12.4365 -0.46302,12.4528 -2.06893,0.078 -7.24559,0.099 -7.9375,0.032 z m 124.883343,0 -0.8599,-0.083 v -28.8228 -28.8228 h 8.67566 c 6.82986,0 8.99748,0.084 10.18829,0.394 3.94896,1.0285 7.30666,3.7495 8.98217,7.2789 2.00456,4.2225 2.43328,8.7911 2.23277,23.7935 -0.15069,11.2738 -0.33104,13.2956 -1.49916,16.8058 -1.11382,3.347 -3.80346,6.5157 -6.7516,7.9542 -2.69071,1.3128 -4.06308,1.4831 -12.37604,1.5359 -4.25277,0.027 -8.11925,0.012 -8.59219,-0.034 z m 15.2045,-8.558 c 0.79285,-0.1996 1.56659,-0.6557 2.21845,-1.3075 2.07153,-2.0716 2.62065,-6.1129 2.61697,-19.2603 -0.004,-14.5601 -0.6974,-18.0884 -3.8549,-19.6169 -1.02656,-0.497 -1.8225,-0.6255 -4.51537,-0.7292 l -3.26913,-0.126 v 20.6732 20.6733 h 2.79325 c 1.53629,0 3.34112,-0.138 4.01073,-0.3066 z m 22.49862,8.5572 -0.7276,-0.084 v -5.0095 -5.0095 h 5.02708 5.02708 v 5.0271 5.0271 l -0.99218,0.017 c -5.2774,0.093 -7.72058,0.1017 -8.33438,0.031 z m 45.37604,8e-4 -0.85989,-0.083 v -28.8228 -28.8228 l 8.9296899,0.01 c 9.75677,0 11.37647,0.1775 14.0844401,1.5003 2.69241,1.3153 5,4.1775 5.82949,7.2308 0.91571,3.3705 0.76903,10.3239 -0.27375,12.9775 -0.76093,1.9364 -2.35414,3.9923 -3.80773,4.9137 -1.35546,0.8592 -1.44772,1.0446 -0.64654,1.2989 0.77561,0.2461 2.81161,2.1561 3.5607,3.3403 1.36719,2.1613 1.76311,4.0057 1.89295,8.8183 0.0902,3.3443 0.0157,5.1055 -0.29063,6.867 -0.78137,4.4934 -2.9608,7.6378 -6.43196,9.2799 -2.6532101,1.2552 -4.5256101,1.4724 -13.1760301,1.5285 -4.37296,0.028 -8.3377899,0.014 -8.8107399,-0.031 z m 16.3485699,-9.0665 c 2.32186,-1.2818 3.02628,-3.1531 3.02974,-8.0485 0.003,-3.9384 -0.32824,-5.4312 -1.52673,-6.8852 -1.3244,-1.6067 -2.45476,-1.9658 -6.20991,-1.9725 l -3.24115,-0.01 v 8.8986 8.8987 l 3.39423,-0.1226 c 2.95819,-0.1068 3.54319,-0.2048 4.55382,-0.7627 z m -0.1017,-25.5932 c 2.17859,-1.1185 3.00248,-3.0891 3.0001,-7.1757 -0.002,-2.9272 -0.31016,-4.2914 -1.25258,-5.5397 -1.07588,-1.4251 -2.50699,-1.8969 -6.29632,-2.076 l -3.29755,-0.1558 v 7.8806 7.8805 l 3.37344,-0.1247 c 2.75985,-0.102 3.57342,-0.2273 4.47291,-0.6892 z m 26.0864701,34.6597 -0.8599,-0.083 v -28.8228 -28.8228 h 12.17084 12.17083 v 4.101 4.1011 l -0.7276,0.017 c -0.40019,0.01 -3.79347,0.022 -7.54063,0.028 l -6.81302,0.011 v 8.0118 8.0118 l 5.75469,0.013 c 3.16508,0.01 6.08211,0.021 6.48229,0.03 l 0.7276,0.016 v 4.101 4.1011 h -6.48229 -6.48229 v 8.4666 8.4667 h 7.54063 7.54062 v 4.1011 4.101 l -0.85989,0.017 c -3.67246,0.072 -21.94102,0.098 -22.62188,0.033 z m 44.58225,-8e-4 -0.7276,-0.084 v -24.7014 -24.7014 l -4.4317,-4e-4 c -2.4375,-2e-4 -4.6402,-0.01 -4.8948,-0.02 -0.4203,-0.017 -0.4631,-0.3981 -0.4631,-4.1202 v -4.101 h 14.2875 14.2875 v 4.101 c 0,3.7222 -0.043,4.1028 -0.463,4.1198 -0.2546,0.01 -2.3978,0.02 -4.7625,0.022 h -4.2995 v 24.7166 24.7165 l -0.5953,0.017 c -2.7692,0.081 -7.3479,0.099 -7.9375,0.031 z m 37.217997,-0.027 c -0.061,-0.061 -0.1102,-11.2128 -0.1102,-24.7827 v -24.6725 h -4.2994 c -2.3647,0 -4.5674,-0.012 -4.8948,-0.022 -0.591,-0.019 -0.5953,-0.049 -0.5953,-4.1198 v -4.101 h 14.4198 14.4197 v 4.101 4.1011 l -0.8599,0.018 c -0.4729,0.01 -2.6755,0.022 -4.8947,0.027 l -4.0349,0.01 v 24.7113 24.7113 l -1.1245,0.017 c -6.3457,0.098 -7.9313,0.099 -8.0258,0.01 z m 31.3091,0.027 -0.7276,-0.084 v -28.822 -28.822 h 12.1708 12.1709 v 4.101 4.1011 l -0.9922,0.019 c -0.5457,0.01 -3.939,0.019 -7.5406,0.019 l -6.5485,5e-4 v 8.0332 8.0333 h 5.6224 c 3.0923,-10e-4 6.0094,0.01 6.4823,0.017 l 0.8599,0.019 v 4.101 4.101 h -6.4823 -6.4823 v 8.4667 8.4667 h 7.5407 7.5406 v 4.101 4.1011 l -0.9922,0.017 c -4.3126,0.073 -22.0454,0.098 -22.6219,0.032 z m 37.4826,-0.027 c -0.061,-0.061 -0.1102,-13.0682 -0.1102,-28.9057 v -28.7955 h 8.9535 c 9.8601,0 11.4906,0.2 14.3597,1.7616 2.436,1.3258 4.3956,4.1013 5.3996,7.6477 0.6495,2.2946 0.8471,10.9535 0.3076,13.4771 -0.8632,4.0372 -2.3627,6.6159 -4.8452,8.3322 l -1.3363,0.9239 4.191,12.5668 c 2.305,6.9117 4.191,12.6872 4.191,12.8344 2e-4,0.3277 -9.2238,0.2889 -9.5194,-0.04 -0.1095,-0.1217 -1.8475,-5.4303 -3.8622,-11.7969 l -3.6633,-11.5755 h -2.4578 -2.4578 v 11.774 11.7739 l -1.1245,0.017 c -6.3456,0.098 -7.9312,0.099 -8.0257,0.01 z m 16.9101,-32.3975 c 0.4751,-0.1985 1.1754,-0.7313 1.5563,-1.1839 1.1988,-1.4247 1.3995,-2.4579 1.3995,-7.2052 0,-4.3518 -0.01,-4.3958 -0.7938,-5.9291 -1.1494,-2.2369 -1.8857,-2.5518 -6.3658,-2.7228 l -3.5561,-0.1357 v 8.7688 8.7688 h 3.4481 c 2.3137,0 3.7323,-0.1188 4.3118,-0.3609 z m 49.0594,32.424 -0.7276,-0.084 v -28.822 -28.822 h 12.1708 12.1709 v 4.101 4.1011 l -0.8599,0.016 c -0.473,0.01 -3.8663,0.022 -7.5407,0.03 l -6.6807,0.014 v 8.0399 8.04 h 6.4823 6.4823 v 4.2333 4.2334 h -6.4823 -6.4823 v 12.4354 12.4354 l -0.5953,0.017 c -2.7692,0.081 -7.3479,0.099 -7.9375,0.031 z m 88.3708,0 -0.7276,-0.084 v -24.7038 -24.7039 h -3.5057 c -1.9282,0 -4.0713,-0.01 -4.7625,-0.017 l -1.2568,-0.02 v -4.101 -4.1011 h 14.2875 14.2875 v 4.1011 4.101 l -0.8599,0.018 c -0.4729,0.01 -2.6756,0.022 -4.8948,0.027 l -4.0349,0.01 v 24.7113 24.7113 l -0.5953,0.017 c -2.7692,0.081 -7.3479,0.099 -7.9375,0.031 z m 75.6709,0 -0.7276,-0.084 v -28.822 -28.822 h 8.9535 c 9.8706,0 11.4893,0.1993 14.3755,1.7702 2.4946,1.3577 4.465,4.1658 5.3804,7.668 0.9803,3.7503 1.0303,10.7109 0.1045,14.5542 -0.7451,3.093 -2.6473,5.9982 -4.8325,7.3807 l -1.1548,0.7306 4.2249,12.6717 c 2.3237,6.9695 4.1623,12.7343 4.0858,12.8109 -0.2416,0.2416 -9.2018,0.1749 -9.4234,-0.07 -0.1163,-0.1287 -1.8599,-5.4429 -3.8747,-11.8094 l -3.6632,-11.5755 h -2.4578 -2.4578 v 11.7739 11.774 l -0.5953,0.017 c -2.7692,0.081 -7.3479,0.099 -7.9375,0.031 z m 16.2927,-32.424 c 0.4751,-0.1985 1.1754,-0.7313 1.5563,-1.1839 1.1977,-1.4235 1.3994,-2.4591 1.3994,-7.1865 0,-4.2348 -0.022,-4.4092 -0.7284,-5.8208 -0.4006,-0.8004 -1.0268,-1.67 -1.3916,-1.9325 -0.8617,-0.6201 -3.0931,-0.9745 -6.1482,-0.9764 h -2.4474 v 8.7313 8.7312 h 3.4481 c 2.3136,0 3.7322,-0.1187 4.3118,-0.3609 z m 28.5541,32.4248 -0.8599,-0.083 v -28.8228 -28.8228 h 12.3032 12.3031 v 4.101 4.1011 l -0.8599,0.019 c -0.4729,0.01 -3.9258,0.024 -7.6729,0.029 l -6.813,0.011 v 8.0073 8.0074 l 5.7546,0.015 c 3.1651,0.01 6.1417,0.023 6.6146,0.033 l 0.8599,0.018 v 4.1011 4.101 h -6.6146 -6.6145 v 8.4667 8.4666 h 7.6729 7.6729 v 4.1011 4.101 l -0.9922,0.017 c -4.2939,0.073 -22.0722,0.098 -22.7542,0.033 z m 32.5636,-0.1827 c -0.2895,-0.2118 -0.3486,-1.2323 -0.2908,-5.0271 l 0.072,-4.7614 5.0933,-0.072 5.0932,-0.072 v 5.0328 5.0328 l -0.5953,0.017 c -4.6688,0.1354 -9.0788,0.064 -9.3729,-0.1507 z m -857.46824,-94.89235 c -30.16806,-2.1821 -57.83694,-13.2475 -78.44896,-31.3736 -3.8332,-3.3709 -9.85433,-9.473 -12.73267,-12.9039 -13.61635,-16.2303 -22.84047,-36.4266 -26.40656,-57.8175 -1.87282,-11.2339 -1.71244,-0.4684 -1.80018,-120.8424 l -0.0791,-108.5453 h 37.3103 37.31031 l 0.01,101.4016 c 0.005,55.8081 0.1166,103.6619 0.24731,106.4286 0.13062,2.7649 0.48792,6.7363 0.79401,8.8254 2.87153,19.5982 12.79838,34.3387 28.18532,41.8528 7.58551,3.7044 15.02285,5.4346 24.63011,5.73 14.92725,0.4591 27.54893,-3.1088 37.68605,-10.6531 1.4533,-1.0816 2.70155,-1.9665 2.7739,-1.9665 0.0724,0 0.10137,16.9961 0.0645,37.7691 l -0.067,37.769 -3.70417,0.8575 c -7.15042,1.6553 -15.9039,2.9343 -23.94479,3.4986 -4.50636,0.3163 -17.28185,0.2986 -21.82812,-0.03 z m 197.77988,-110.754 c 0.002,-66.343 0.10059,-106.4054 0.26788,-109.3391 1.7991,-31.549 14.03614,-59.4098 35.34988,-80.4831 6.34914,-6.2776 12.10498,-10.9586 18.88257,-15.3567 18.830573,-12.2194 40.147863,-19.26 64.822913,-21.4094 4.96581,-0.4325 19.93008,-0.4318 24.87084,0 29.6317099,2.5971 54.63176,12.4183 75.40625,29.6231 3.86058,3.1972 11.8882,11.2175 14.96723,14.9535 17.2135,20.8865 26.5521,45.7993 27.8889,74.3993 0.1592,3.4067 0.2616,45.4519 0.2651,108.9341 l 0.01,103.3859 h -37.43869 -37.43854 l -9.4e-4,-102.4597 c -6.1e-4,-66.5616 -0.0953,-103.9431 -0.27031,-106.6932 -1.32926,-20.8901 -9.1152001,-36.3521 -23.0897401,-45.8536 -11.1008899,-7.5477 -25.8928499,-10.5978 -41.8359999,-8.6267 -24.39009,3.0155 -41.28431,18.8834 -46.17271,43.3678 -1.57506,7.8889 -1.44943,-1.4735 -1.5364,114.4984 l -0.0793,105.7672 h -37.434383 -37.43438 z m 322.64576,104.3786 c -0.069,-0.1819 -0.095,-73.4947 -0.058,-162.9172 l 0.068,-162.5865 112.7786,-0.067 112.7787,-0.066 v 35.0576 35.0576 h -75.4063 -75.4062 v 41.0105 41.0104 h 58.6052 58.6052 v 34.1312 34.1313 h -58.6052 -58.6052 v 52.7843 52.7844 h -37.3146 c -29.6083,0 -37.3404,-0.068 -37.44,-0.3307 z m 263.1379,-162.6535 v -162.9843 l 37.3724,0.067 37.3724,0.067 0.066,162.9172 0.066,162.9172 h -37.4388 -37.4387 z m -715.40173,41.1964 c 0.0187,-64.3493 0.13231,-118.7251 0.25255,-120.8351 2.71407,-47.6285 27.78727,-93.1929 62.878,-114.2653 2.62308,-1.5752 8.44022,-4.5901 10.45871,-5.4206 l 0.99274,-0.4084 -0.0284,125.4654 c -0.0165,72.8012 -0.12962,126.7425 -0.26952,128.5081 -3.28911,41.5098 -24.35589,75.809 -59.2344,96.4403 -2.99044,1.769 -12.66265,6.6703 -14.26588,7.2291 l -0.8177,0.2851 z"
       id="path17" /></g></svg>
